{
    "asset" : {
        "generator" : "Khronos glTF Blender I/O v1.8.19",
        "version" : "2.0"
    },
    "scene" : 0,
    "scenes" : [
        {
            "name" : "Scene",
            "nodes" : [
                0
            ]
        }
    ],
    "nodes" : [
        {
            "mesh" : 0,
            "name" : "Suzanne"
        }
    ],
    "animations" : [
        {
            "channels" : [
                {
                    "sampler" : 0,
                    "target" : {
                        "node" : 0,
                        "path" : "weights"
                    }
                }
            ],
            "name" : "chin_track",
            "samplers" : [
                {
                    "input" : 10,
                    "interpolation" : "LINEAR",
                    "output" : 11
                }
            ]
        },
        {
            "channels" : [
                {
                    "sampler" : 0,
                    "target" : {
                        "node" : 0,
                        "path" : "weights"
                    }
                }
            ],
            "name" : "left_ear_track",
            "samplers" : [
                {
                    "input" : 10,
                    "interpolation" : "LINEAR",
                    "output" : 12
                }
            ]
        },
        {
            "channels" : [
                {
                    "sampler" : 0,
                    "target" : {
                        "node" : 0,
                        "path" : "weights"
                    }
                }
            ],
            "name" : "right_ear_track",
            "samplers" : [
                {
                    "input" : 10,
                    "interpolation" : "LINEAR",
                    "output" : 13
                }
            ]
        }
    ],
    "materials" : [
        {
            "doubleSided" : true,
            "name" : "Material.001",
            "pbrMetallicRoughness" : {
                "baseColorFactor" : [
                    0.800000011920929,
                    0.800000011920929,
                    0.800000011920929,
                    1
                ],
                "metallicFactor" : 0,
                "roughnessFactor" : 0.5
            }
        }
    ],
    "meshes" : [
        {
            "extras" : {
                "targetNames" : [
                    "ear_left",
                    "ear_right",
                    "chin"
                ]
            },
            "name" : "Suzanne",
            "primitives" : [
                {
                    "attributes" : {
                        "POSITION" : 0,
                        "NORMAL" : 1,
                        "TEXCOORD_0" : 2
                    },
                    "indices" : 3,
                    "material" : 0,
                    "targets" : [
                        {
                            "POSITION" : 4,
                            "NORMAL" : 5
                        },
                        {
                            "POSITION" : 6,
                            "NORMAL" : 7
                        },
                        {
                            "POSITION" : 8,
                            "NORMAL" : 9
                        }
                    ]
                }
            ],
            "weights" : [
                0,
                0,
                0
            ]
        }
    ],
    "accessors" : [
        {
            "bufferView" : 0,
            "componentType" : 5126,
            "count" : 2928,
            "max" : [
                1.325934886932373,
                0.9392362236976624,
                0.8223199844360352
            ],
            "min" : [
                -1.325934886932373,
                -0.9704862236976624,
                -0.7782661318778992
            ],
            "type" : "VEC3"
        },
        {
            "bufferView" : 1,
            "componentType" : 5126,
            "count" : 2928,
            "type" : "VEC3"
        },
        {
            "bufferView" : 2,
            "componentType" : 5126,
            "count" : 2928,
            "type" : "VEC2"
        },
        {
            "bufferView" : 3,
            "componentType" : 5123,
            "count" : 11808,
            "type" : "SCALAR"
        },
        {
            "bufferView" : 4,
            "componentType" : 5126,
            "count" : 2928,
            "max" : [
                0.7063707113265991,
                0.3266562819480896,
                0
            ],
            "min" : [
                0,
                0,
                -0.07078397274017334
            ],
            "type" : "VEC3"
        },
        {
            "bufferView" : 5,
            "componentType" : 5126,
            "count" : 2928,
            "type" : "VEC3"
        },
        {
            "bufferView" : 6,
            "componentType" : 5126,
            "count" : 2928,
            "max" : [
                0,
                0.11917372047901154,
                0
            ],
            "min" : [
                -0.5177514553070068,
                0,
                -0.009264320135116577
            ],
            "type" : "VEC3"
        },
        {
            "bufferView" : 7,
            "componentType" : 5126,
            "count" : 2928,
            "type" : "VEC3"
        },
        {
            "bufferView" : 8,
            "componentType" : 5126,
            "count" : 2928,
            "max" : [
                0,
                0,
                0.05759596824645996
            ],
            "min" : [
                -0.0029088803566992283,
                -0.33741384744644165,
                0
            ],
            "type" : "VEC3"
        },
        {
            "bufferView" : 9,
            "componentType" : 5126,
            "count" : 2928,
            "type" : "VEC3"
        },
        {
            "bufferView" : 10,
            "componentType" : 5126,
            "count" : 30,
            "max" : [
                1.25
            ],
            "min" : [
                0.041666666666666664
            ],
            "type" : "SCALAR"
        },
        {
            "bufferView" : 11,
            "componentType" : 5126,
            "count" : 90,
            "type" : "SCALAR"
        },
        {
            "bufferView" : 12,
            "componentType" : 5126,
            "count" : 90,
            "type" : "SCALAR"
        },
        {
            "bufferView" : 13,
            "componentType" : 5126,
            "count" : 90,
            "type" : "SCALAR"
        }
    ],
    "bufferViews" : [
        {
            "buffer" : 0,
            "byteLength" : 35136,
            "byteOffset" : 0
        },
        {
            "buffer" : 0,
            "byteLength" : 35136,
            "byteOffset" : 35136
        },
        {
            "buffer" : 0,
            "byteLength" : 23424,
            "byteOffset" : 70272
        },
        {
            "buffer" : 0,
            "byteLength" : 23616,
            "byteOffset" : 93696
        },
        {
            "buffer" : 0,
            "byteLength" : 35136,
            "byteOffset" : 117312
        },
        {
            "buffer" : 0,
            "byteLength" : 35136,
            "byteOffset" : 152448
        },
        {
            "buffer" : 0,
            "byteLength" : 35136,
            "byteOffset" : 187584
        },
        {
            "buffer" : 0,
            "byteLength" : 35136,
            "byteOffset" : 222720
        },
        {
            "buffer" : 0,
            "byteLength" : 35136,
            "byteOffset" : 257856
        },
        {
            "buffer" : 0,
            "byteLength" : 35136,
            "byteOffset" : 292992
        },
        {
            "buffer" : 0,
            "byteLength" : 120,
            "byteOffset" : 328128
        },
        {
            "buffer" : 0,
            "byteLength" : 360,
            "byteOffset" : 328248
        },
        {
            "buffer" : 0,
            "byteLength" : 360,
            "byteOffset" : 328608
        },
        {
            "buffer" : 0,
            "byteLength" : 360,
            "byteOffset" : 328968
        }
    ],
    "buffers" : [
        {
            "byteLength" : 329328,
            "uri" : "data:application/octet-stream;base64,"
        }
    ]
}
